<svg xmlns="http://www.w3.org/2000/svg" viewBox="0 0 512 512" width="512" height="512" role="img" aria-label=".md Manager logo">
  <!-- Midnight squircle -->
  <rect x="16" y="16" width="480" height="480" rx="112" fill="#0C1B33"/>
  <rect x="34" y="34" width="444" height="444" rx="96" fill="none" stroke="#FFC53D" stroke-opacity="0.16" stroke-width="4"/>

  <!-- faint background glyphs (tone-on-tone, no opacity trick) -->
  <path d="M79.91 168L72.63 168L76.69 146.16L67.64 146.16L67.64 139.40L77.83 139.40L81.37 120.68L71.28 120.68L71.28 113.92L82.51 113.92L86.57 92.08L93.85 92.08L89.79 113.92L106.43 113.92L110.49 92.08L117.77 92.08L113.71 113.92L122.76 113.92L122.76 120.68L112.57 120.68L109.03 139.40L119.12 139.40L119.12 146.16L107.89 146.16L103.83 168L96.55 168L100.61 146.16L83.97 146.16L79.91 168M88.65 120.68L85.11 139.40L101.75 139.40L105.29 120.68" fill="#29364B"/>
  <path d="M407.56 422.88L362.84 445.24L362.84 436.19L395.08 420.38Q397.06 419.45 398.77 418.77Q400.49 418.10 401.32 417.89Q400.38 417.68 398.62 416.95Q396.85 416.22 395.08 415.39L362.84 399.48L362.84 390.12L407.56 412.48" fill="#29364B"/>

  <!-- wordmark: ".md" set in JetBrains Mono Bold, converted to paths -->
  <path d="M114.40 319.68Q107.34 319.68 103.06 315.40Q98.78 311.11 98.78 304.22Q98.78 297.34 103.06 292.97Q107.34 288.60 114.40 288.60Q121.46 288.60 125.74 292.97Q130.02 297.34 130.02 304.22Q130.02 311.11 125.74 315.40Q121.46 319.68 114.40 319.68" fill="#FFC53D"/>
  <path d="M187.18 318L168.70 318L168.70 225.60L186.17 225.60L186.17 239.04L186.67 239.04Q187.18 232.32 191.38 228.12Q195.58 223.92 201.96 223.92Q208.18 223.92 212.54 227.87Q216.91 231.82 218.42 238.54Q219.10 231.82 223.38 227.87Q227.66 223.92 234.22 223.92Q242.62 223.92 248.16 230.56Q253.70 237.19 253.70 247.61L253.70 318L235.22 318L235.22 249.12Q235.22 244.58 233.12 241.98Q231.02 239.38 227.16 239.38Q219.60 239.38 219.60 249.12L219.60 318L202.80 318L202.80 249.12Q202.80 244.58 200.87 241.98Q198.94 239.38 195.24 239.38Q187.18 239.38 187.18 249.12" fill="#FBFAF7"/>
  <path d="M299.60 319.68Q286.16 319.68 277.84 310.10Q269.53 300.53 269.53 284.40L269.53 259.37Q269.53 243.07 277.76 233.50Q285.99 223.92 299.60 223.92Q309.18 223.92 315.81 228.79Q322.45 233.66 325.14 242.40L324.46 221.23L324.46 195.36L345.46 195.36L345.46 318L324.97 318L324.97 301.20Q322.45 309.94 315.90 314.81Q309.34 319.68 299.60 319.68M307.50 301.54Q315.56 301.54 320.01 296.66Q324.46 291.79 324.46 282.89L324.46 260.71Q324.46 251.81 320.01 246.94Q315.56 242.06 307.50 242.06Q299.43 242.06 294.98 246.43Q290.53 250.80 290.53 259.87L290.53 283.73Q290.53 292.80 294.98 297.17Q299.43 301.54 307.50 301.54" fill="#FBFAF7"/>

  <!-- blinking cursor block -->
  <rect x="368" y="195" width="46" height="125" rx="10" fill="#FFC53D">
    <animate attributeName="opacity" values="1;1;0;0;1" keyTimes="0;0.45;0.5;0.95;1" dur="1.3s" repeatCount="indefinite"/>
  </rect>
</svg>
